<svg width="21" height="20" viewBox="0 0 21 20" fill="none" xmlns="http://www.w3.org/2000/svg">
<path d="M10.8305 0C11.7476 0 12.6322 0.117188 13.4843 0.351562C14.3364 0.585938 15.13 0.924479 15.865 1.36719C16.6 1.8099 17.2732 2.33073 17.8846 2.92969C18.496 3.52865 19.0196 4.20247 19.4554 4.95117C19.8912 5.69987 20.2262 6.4974 20.4604 7.34375C20.6945 8.1901 20.8149 9.07552 20.8214 10C20.8214 10.918 20.7043 11.8034 20.4701 12.6562C20.236 13.5091 19.8977 14.3034 19.4554 15.0391C19.0131 15.7747 18.4928 16.4486 17.8944 17.0605C17.2959 17.6725 16.6227 18.1966 15.8747 18.6328C15.1267 19.069 14.3299 19.4043 13.4843 19.6387C12.6387 19.873 11.7541 19.9935 10.8305 20C9.91336 20 9.02875 19.8828 8.17666 19.6484C7.32457 19.4141 6.52777 19.0788 5.78626 18.6426C5.04475 18.2064 4.37154 17.6855 3.76662 17.0801C3.1617 16.4746 2.64134 15.7975 2.20554 15.0488C1.76974 14.3001 1.43476 13.5059 1.2006 12.666C0.966437 11.8262 0.846104 10.9375 0.8396 10C0.8396 9.08203 0.95668 8.19661 1.19084 7.34375C1.425 6.49089 1.76324 5.69661 2.20554 4.96094C2.64785 4.22526 3.16821 3.55143 3.76662 2.93945C4.36503 2.32747 5.03825 1.80339 5.78626 1.36719C6.53428 0.93099 7.33108 0.595703 8.17666 0.361328C9.02224 0.126953 9.90685 0.00651042 10.8305 0ZM10.8305 18.75C11.637 18.75 12.4111 18.6458 13.1526 18.4375C13.8941 18.2292 14.5901 17.9362 15.2405 17.5586C15.891 17.181 16.4796 16.7253 17.0065 16.1914C17.5334 15.6576 17.9887 15.0684 18.3724 14.4238C18.7562 13.7793 19.0522 13.0827 19.2603 12.334C19.4684 11.5853 19.5725 10.8073 19.5725 10C19.5725 9.19271 19.4684 8.41797 19.2603 7.67578C19.0522 6.93359 18.7595 6.23698 18.3822 5.58594C18.0049 4.9349 17.5496 4.3457 17.0163 3.81836C16.4829 3.29102 15.8942 2.83529 15.2503 2.45117C14.6063 2.06706 13.9104 1.77083 13.1623 1.5625C12.4143 1.35417 11.637 1.25 10.8305 1.25C10.0239 1.25 9.2499 1.35417 8.50839 1.5625C7.76688 1.77083 7.0709 2.0638 6.42045 2.44141C5.77 2.81901 5.18134 3.27474 4.65448 3.80859C4.12762 4.34245 3.6723 4.93164 3.28854 5.57617C2.90477 6.2207 2.60882 6.91732 2.40068 7.66602C2.19253 8.41471 2.08846 9.19271 2.08846 10C2.08846 10.8073 2.19253 11.582 2.40068 12.3242C2.60882 13.0664 2.90152 13.763 3.27878 14.4141C3.65604 15.0651 4.11136 15.6576 4.64472 16.1914C5.17809 16.7253 5.76675 17.181 6.41069 17.5586C7.05464 17.9362 7.75062 18.2292 8.49863 18.4375C9.24665 18.6458 10.0239 18.75 10.8305 18.75ZM11.4549 9.36523H15.8259V10.6152H11.4549V15H10.2061V10.6152H5.83504V9.36523H10.2061V5H11.4549V9.36523Z" fill="black"/>
</svg>
