<svg width="21" height="20" viewBox="0 0 21 20" fill="none" xmlns="http://www.w3.org/2000/svg">
<path d="M10.8879 0C11.8037 0 12.6883 0.118056 13.5417 0.354167C14.3951 0.590278 15.1895 0.927083 15.9249 1.36458C16.6604 1.80208 17.3334 2.32292 17.9439 2.92708C18.5545 3.53125 19.0748 4.20486 19.505 4.94792C19.9352 5.69097 20.2717 6.48958 20.5145 7.34375C20.7573 8.19792 20.8787 9.08333 20.8787 10C20.8787 10.9167 20.7608 11.8021 20.5249 12.6562C20.289 13.5104 19.9525 14.3056 19.5154 15.0417C19.0783 15.7778 18.5579 16.4514 17.9543 17.0625C17.3507 17.6736 16.6777 18.1944 15.9353 18.625C15.193 19.0556 14.3951 19.3924 13.5417 19.6354C12.6883 19.8785 11.8037 20 10.8879 20C9.97203 20 9.08742 19.8819 8.23403 19.6458C7.38064 19.4097 6.58623 19.0729 5.85079 18.6354C5.11535 18.1979 4.44235 17.6771 3.8318 17.0729C3.22124 16.4688 2.70088 15.7951 2.27072 15.0521C1.84056 14.309 1.50406 13.5139 1.26122 12.6667C1.01839 11.8194 0.896973 10.9306 0.896973 10C0.896973 9.08333 1.01492 8.19792 1.25082 7.34375C1.48671 6.48958 1.82321 5.69444 2.26031 4.95833C2.69741 4.22222 3.21777 3.54861 3.82139 2.9375C4.425 2.32639 5.098 1.80556 5.84038 1.375C6.58276 0.944444 7.37717 0.607639 8.22362 0.364583C9.07007 0.121528 9.95815 0 10.8879 0ZM10.8879 18.6667C11.6857 18.6667 12.4524 18.566 13.1878 18.3646C13.9233 18.1632 14.6136 17.8715 15.2589 17.4896C15.9041 17.1076 16.4869 16.6562 17.0073 16.1354C17.5276 15.6146 17.9786 15.0312 18.3602 14.3854C18.7418 13.7396 19.0332 13.0486 19.2344 12.3125C19.4356 11.5764 19.5397 10.8056 19.5466 10C19.5466 9.20139 19.446 8.43403 19.2448 7.69792C19.0436 6.96181 18.7522 6.27083 18.3706 5.625C17.989 4.97917 17.538 4.39583 17.0177 3.875C16.4973 3.35417 15.9145 2.90278 15.2693 2.52083C14.624 2.13889 13.9337 1.84722 13.1983 1.64583C12.4628 1.44444 11.6927 1.34028 10.8879 1.33333C10.09 1.33333 9.32331 1.43403 8.58787 1.63542C7.85243 1.83681 7.16209 2.12847 6.51685 2.51042C5.8716 2.89236 5.2888 3.34375 4.76844 3.86458C4.24808 4.38542 3.79711 4.96875 3.41551 5.61458C3.03391 6.26042 2.74251 6.95139 2.54131 7.6875C2.3401 8.42361 2.23603 9.19444 2.22909 10C2.22909 10.7986 2.32969 11.566 2.5309 12.3021C2.7321 13.0382 3.02351 13.7292 3.4051 14.375C3.7867 15.0208 4.23768 15.6042 4.75803 16.125C5.27839 16.6458 5.86119 17.0972 6.50644 17.4792C7.15168 17.8611 7.84203 18.1528 8.57747 18.3542C9.31291 18.5556 10.083 18.6597 10.8879 18.6667ZM4.89333 9.33333H16.8824V10.6667H4.89333V9.33333Z" fill="black"/>
</svg>
